<?xml version="1.0" encoding="utf-8"?>
<!-- Generator: Adobe Illustrator 24.0.0, SVG Export Plug-In . SVG Version: 6.00 Build 0)  -->
<svg version="1.1" id="Layer_1" xmlns="http://www.w3.org/2000/svg" xmlns:xlink="http://www.w3.org/1999/xlink" x="0px" y="0px"
	 viewBox="0 0 128 128" style="enable-background:new 0 0 128 128;" xml:space="preserve">
<g>
	<path d="M59.9,111.1c-10.2,8.4-22.4,8.3-34.6,6.3c-12.6-2.1-21.9-12.3-22.4-25.1C1.9,71,7.6,51.1,18.8,32.9
		c3.6-5.8,8.5-10.2,16.2-10c1.4,0,2.9-1.3,4.1-2.4c3.8-3.5,7.2-7.3,11.1-10.7c0.3-0.3,0.7-0.4,1.1-0.5c2-0.4,3.8,1.6,2.9,3.4
		c-0.1,0.2-0.2,0.4-0.3,0.5c-3.3,3.5-6.9,6.7-10.4,10c11,9.5,11.2,10,21.8,37.6c6.7-4.4,14-6.4,22-6.2c1.2,0,2.6-1.2,3.7-2.2
		c3.2-2.9,6-6.2,9.3-9c0,0,0,0,0,0c2.1-1.7,5.1,1,3.7,3.3c-0.1,0.1-0.2,0.3-0.3,0.4c-2.2,2.6-5.1,4.7-8.3,7.5
		c2.7,0.8,4.2,1.2,5.6,1.7c16.1,5.2,26.5,21.9,23.8,38.6c-1.6,10-7.6,17.2-17.1,20.3C91.6,120.5,75.6,120.3,59.9,111.1z M35.7,113.1
		c19.7,0.9,28.1-11,28.1-23.3c0-19.2-5.5-37.1-15.1-53.8c-6.1-10.6-19.6-10.6-25.7,0.1C13.5,52.7,8,70.4,7.9,89.5
		c-0.1,12.3,7.4,20.8,19.3,23C30,113,32.8,112.9,35.7,113.1z M63.5,107.2c3.2,1.5,5.8,3.1,8.6,3.9c10.5,2.9,21.1,3.1,31.5,0
		c12.6-3.7,18.5-14.2,15.7-27C114,59,87,55.5,70.7,63.9c-3.3,1.7-4.1,3.8-3.3,7.5C69.7,83.4,71.1,95.3,63.5,107.2z"/>
	<path d="M88.1,44.9c0,1.5,0.5,3.3-0.1,4.4c-0.8,1.3-2.8,3.1-3.8,2.9c-11.9-2.8-22.1-12.6-17.2-28.2c0.9-3,2.6-3.7,5.7-2.9
		c8.5,2.3,13.9,9.1,15.2,19.4C88,41.9,88,43.4,88.1,44.9z M82.6,45.8c0.4-10.1-3.2-16.7-10.5-18.9C69.1,35.4,73.4,43,82.6,45.8z"/>
</g>
</svg>
